<svg width="39" height="35" viewBox="0 0 39 35" fill="none" xmlns="http://www.w3.org/2000/svg">
<path d="M11.6708 1.47127L8.02397 8.4207C7.7885 8.86941 7.94356 9.4304 8.37274 9.68266L14.083 13.0392C14.5181 13.2949 15.0712 13.1377 15.3187 12.6878L22.2985 0.00050354H14.0607C13.0635 0.00050354 12.1464 0.564901 11.6708 1.47127Z" fill="#29A361"/>
<path d="M22.2984 0L15.3188 12.6874C15.0709 13.1372 14.5181 13.2949 14.0832 13.0393L12.5928 12.1635C12.9561 12.2241 13.3342 12.0513 13.5266 11.701L19.965 0H22.2984Z" fill="#248F55"/>
<path d="M29.9353 6.72889L27.42 1.55032C26.9585 0.600204 26.0183 0.000488281 24.9902 0.000488281H17.7178L23.3015 9.79725C23.2832 9.80575 23.2648 9.81426 23.2465 9.82276C22.8953 9.98629 22.9096 10.5073 23.2692 10.6501L28.0908 12.565C28.3142 12.6537 28.5649 12.5383 28.6507 12.3073L30.5094 7.30187C30.6468 6.9316 30.2859 6.57432 29.9353 6.72889Z" fill="#34CB79"/>
<path d="M30.5093 7.30145L28.6501 12.3068C28.5647 12.5385 28.3136 12.654 28.0904 12.5648L26.6315 11.9852L28.3707 7.30145C28.4695 7.03583 28.3116 6.77717 28.085 6.70931C27.8693 6.64463 27.6851 6.49849 27.5843 6.2909L25.2812 1.55014C24.82 0.600333 23.8801 0 22.8516 0H24.9902C26.018 0 26.9579 0.600333 27.4199 1.55014L29.935 6.7291C30.2861 6.57461 30.6464 6.93127 30.5093 7.30145Z" fill="#2FB86E"/>
<path d="M25.0774 26.6949C25.0097 26.4074 24.651 26.2842 24.432 26.5106L20.6636 30.4077C20.5132 30.5632 20.5132 30.8152 20.6636 30.9706L24.4466 34.8828C24.664 35.1076 25.019 34.9876 25.0905 34.7049H30.6536C31.6778 34.7049 32.6152 34.1098 33.0786 33.1652L36.2529 26.6948H25.0774V26.6949Z" fill="#29A361"/>
<path d="M29.7744 26.6951L31.5782 29.5178C31.986 30.1559 32.0312 30.9714 31.6965 31.6535L30.9545 33.1654C30.4919 34.1097 29.5542 34.7052 28.5303 34.7052H30.6543C31.6782 34.7052 32.616 34.1097 33.0794 33.1654L36.2535 26.6952H29.7744V26.6951Z" fill="#248F55"/>
<path d="M17.4854 33.9611V27.0738C17.4854 26.5562 17.0796 26.1365 16.579 26.1365H1.64844L5.4908 33.4315C5.96706 34.3357 6.88303 34.8984 7.87867 34.8984H16.579C17.0795 34.8985 17.4854 34.4788 17.4854 33.9611Z" fill="#29A361"/>
<path d="M7.98053 26.1374L4.66472 31.8641L1.64844 26.1374H7.98053Z" fill="#248F55"/>
<path d="M17.4844 27.0741V33.9616C17.4844 34.4791 17.0787 34.8987 16.5783 34.8987H14.2002C14.7006 34.8987 15.1063 34.4791 15.1063 33.9616V27.0741C15.1063 26.5566 14.7006 26.1371 14.2002 26.1371H16.5783C17.0787 26.137 17.4844 26.5566 17.4844 27.0741Z" fill="#248F55"/>
<path d="M10.191 20.0511L9.52055 14.833C9.48745 14.5752 9.25847 14.3941 9.00925 14.4283L3.94406 15.1243C3.56264 15.1767 3.4205 15.6566 3.68176 15.9235L0.485071 20.6884C-0.101043 21.562 -0.160529 22.7027 0.331275 23.6364L3.80992 30.2409L9.45823 20.4839C9.46025 20.4854 9.46219 20.4871 9.46421 20.4886C9.7866 20.7416 10.2443 20.466 10.191 20.0511Z" fill="#34CB79"/>
<path d="M9.46404 20.4882C9.46247 20.4866 9.46023 20.485 9.45866 20.4834L3.81013 30.2402L2.64844 28.0349L7.24588 20.092L7.37337 19.8717C7.44309 19.7513 7.57933 19.6993 7.71257 19.726C7.71324 19.7262 7.71392 19.7263 7.71459 19.7264C7.99804 19.7787 8.28882 19.5344 8.24525 19.1993L7.6563 14.6135L9.00893 14.428C9.25838 14.3937 9.4878 14.5753 9.52091 14.8324L10.1915 20.0512C10.2447 20.4659 9.78657 20.7413 9.46404 20.4882Z" fill="#2FB86E"/>
<path d="M37.7813 20.3295L33.4086 13.7771C33.1404 13.3752 32.6186 13.2536 32.2096 13.4977L26.5111 16.8984C26.0588 17.1682 25.9201 17.7765 26.208 18.2271L34.2413 30.7962L37.9684 23.199C38.4195 22.2794 38.3477 21.1782 37.7813 20.3295Z" fill="#34CB79"/>
<path d="M37.9676 23.1989L34.24 30.7957L32.9897 28.8388L35.7567 23.1988C36.2078 22.2792 36.1362 21.1782 35.5696 20.3295L31.3516 14.0097L32.2092 13.4977C32.618 13.2533 33.1399 13.3751 33.4079 13.7772L37.7807 20.3296C38.3472 21.1783 38.4188 22.2794 37.9676 23.1989Z" fill="#2FB86E"/>
</svg>
