<svg width="233" height="64" viewBox="0 0 233 64" fill="none" xmlns="http://www.w3.org/2000/svg">
<path d="M69.672 28.48C69.368 27.92 68.928 27.496 68.352 27.208C67.792 26.904 67.128 26.752 66.36 26.752C65.032 26.752 63.968 27.192 63.168 28.072C62.368 28.936 61.968 30.096 61.968 31.552C61.968 33.104 62.384 34.32 63.216 35.2C64.064 36.064 65.224 36.496 66.696 36.496C67.704 36.496 68.552 36.24 69.24 35.728C69.944 35.216 70.456 34.48 70.776 33.52H65.568V30.496H74.496V34.312C74.192 35.336 73.672 36.288 72.936 37.168C72.216 38.048 71.296 38.76 70.176 39.304C69.056 39.848 67.792 40.12 66.384 40.12C64.72 40.12 63.232 39.76 61.92 39.04C60.624 38.304 59.608 37.288 58.872 35.992C58.152 34.696 57.792 33.216 57.792 31.552C57.792 29.888 58.152 28.408 58.872 27.112C59.608 25.8 60.624 24.784 61.92 24.064C63.216 23.328 64.696 22.96 66.36 22.96C68.376 22.96 70.072 23.448 71.448 24.424C72.84 25.4 73.76 26.752 74.208 28.48H69.672ZM80.8733 28.84C81.3533 28.104 81.9533 27.528 82.6733 27.112C83.3933 26.68 84.1933 26.464 85.0733 26.464V30.808H83.9453C82.9213 30.808 82.1533 31.032 81.6413 31.48C81.1293 31.912 80.8733 32.68 80.8733 33.784V40H76.7693V26.608H80.8733V28.84ZM99.6589 33.088C99.6589 33.472 99.6349 33.872 99.5869 34.288H90.2989C90.3629 35.12 90.6269 35.76 91.0909 36.208C91.5709 36.64 92.1549 36.856 92.8429 36.856C93.8669 36.856 94.5789 36.424 94.9789 35.56H99.3469C99.1229 36.44 98.7149 37.232 98.1229 37.936C97.5469 38.64 96.8189 39.192 95.9389 39.592C95.0589 39.992 94.0749 40.192 92.9869 40.192C91.6749 40.192 90.5069 39.912 89.4829 39.352C88.4589 38.792 87.6589 37.992 87.0829 36.952C86.5069 35.912 86.2189 34.696 86.2189 33.304C86.2189 31.912 86.4989 30.696 87.0589 29.656C87.6349 28.616 88.4349 27.816 89.4589 27.256C90.4829 26.696 91.6589 26.416 92.9869 26.416C94.2829 26.416 95.4349 26.688 96.4429 27.232C97.4509 27.776 98.2349 28.552 98.7949 29.56C99.3709 30.568 99.6589 31.744 99.6589 33.088ZM95.4589 32.008C95.4589 31.304 95.2189 30.744 94.7389 30.328C94.2589 29.912 93.6589 29.704 92.9389 29.704C92.2509 29.704 91.6669 29.904 91.1869 30.304C90.7229 30.704 90.4349 31.272 90.3229 32.008H95.4589ZM114.448 33.088C114.448 33.472 114.424 33.872 114.376 34.288H105.088C105.152 35.12 105.416 35.76 105.88 36.208C106.36 36.64 106.944 36.856 107.632 36.856C108.656 36.856 109.368 36.424 109.768 35.56H114.136C113.912 36.44 113.504 37.232 112.912 37.936C112.336 38.64 111.608 39.192 110.728 39.592C109.848 39.992 108.864 40.192 107.776 40.192C106.464 40.192 105.296 39.912 104.272 39.352C103.248 38.792 102.448 37.992 101.872 36.952C101.296 35.912 101.008 34.696 101.008 33.304C101.008 31.912 101.288 30.696 101.848 29.656C102.424 28.616 103.224 27.816 104.248 27.256C105.272 26.696 106.448 26.416 107.776 26.416C109.072 26.416 110.224 26.688 111.232 27.232C112.24 27.776 113.024 28.552 113.584 29.56C114.16 30.568 114.448 31.744 114.448 33.088ZM110.248 32.008C110.248 31.304 110.008 30.744 109.528 30.328C109.048 29.912 108.448 29.704 107.728 29.704C107.04 29.704 106.456 29.904 105.976 30.304C105.512 30.704 105.224 31.272 105.112 32.008H110.248ZM124.773 26.464C126.341 26.464 127.589 26.976 128.517 28C129.461 29.008 129.933 30.4 129.933 32.176V40H125.853V32.728C125.853 31.832 125.621 31.136 125.157 30.64C124.693 30.144 124.069 29.896 123.285 29.896C122.501 29.896 121.877 30.144 121.413 30.64C120.949 31.136 120.717 31.832 120.717 32.728V40H116.613V26.608H120.717V28.384C121.133 27.792 121.693 27.328 122.397 26.992C123.101 26.64 123.893 26.464 124.773 26.464ZM146.463 40L142.959 33.64H141.975V40H137.871V23.152H144.759C146.087 23.152 147.215 23.384 148.143 23.848C149.087 24.312 149.791 24.952 150.255 25.768C150.719 26.568 150.951 27.464 150.951 28.456C150.951 29.576 150.631 30.576 149.991 31.456C149.367 32.336 148.439 32.96 147.207 33.328L151.095 40H146.463ZM141.975 30.736H144.519C145.271 30.736 145.831 30.552 146.199 30.184C146.583 29.816 146.775 29.296 146.775 28.624C146.775 27.984 146.583 27.48 146.199 27.112C145.831 26.744 145.271 26.56 144.519 26.56H141.975V30.736ZM166.151 33.088C166.151 33.472 166.127 33.872 166.079 34.288H156.791C156.855 35.12 157.119 35.76 157.583 36.208C158.063 36.64 158.647 36.856 159.335 36.856C160.359 36.856 161.071 36.424 161.471 35.56H165.839C165.615 36.44 165.207 37.232 164.615 37.936C164.039 38.64 163.311 39.192 162.431 39.592C161.551 39.992 160.567 40.192 159.479 40.192C158.167 40.192 156.999 39.912 155.975 39.352C154.951 38.792 154.151 37.992 153.575 36.952C152.999 35.912 152.711 34.696 152.711 33.304C152.711 31.912 152.991 30.696 153.551 29.656C154.127 28.616 154.927 27.816 155.951 27.256C156.975 26.696 158.151 26.416 159.479 26.416C160.775 26.416 161.927 26.688 162.935 27.232C163.943 27.776 164.727 28.552 165.287 29.56C165.863 30.568 166.151 31.744 166.151 33.088ZM161.951 32.008C161.951 31.304 161.711 30.744 161.231 30.328C160.751 29.912 160.151 29.704 159.431 29.704C158.743 29.704 158.159 29.904 157.679 30.304C157.215 30.704 156.927 31.272 156.815 32.008H161.951ZM167.5 33.304C167.5 31.912 167.78 30.696 168.34 29.656C168.916 28.616 169.708 27.816 170.716 27.256C171.74 26.696 172.908 26.416 174.22 26.416C175.9 26.416 177.3 26.856 178.42 27.736C179.556 28.616 180.3 29.856 180.652 31.456H176.284C175.916 30.432 175.204 29.92 174.148 29.92C173.396 29.92 172.796 30.216 172.348 30.808C171.9 31.384 171.676 32.216 171.676 33.304C171.676 34.392 171.9 35.232 172.348 35.824C172.796 36.4 173.396 36.688 174.148 36.688C175.204 36.688 175.916 36.176 176.284 35.152H180.652C180.3 36.72 179.556 37.952 178.42 38.848C177.284 39.744 175.884 40.192 174.22 40.192C172.908 40.192 171.74 39.912 170.716 39.352C169.708 38.792 168.916 37.992 168.34 36.952C167.78 35.912 167.5 34.696 167.5 33.304ZM196.527 26.608L188.127 46.36H183.711L186.783 39.544L181.335 26.608H185.919L189.015 34.984L192.087 26.608H196.527ZM197.195 33.304C197.195 31.912 197.475 30.696 198.035 29.656C198.611 28.616 199.403 27.816 200.411 27.256C201.435 26.696 202.603 26.416 203.915 26.416C205.595 26.416 206.995 26.856 208.115 27.736C209.251 28.616 209.995 29.856 210.347 31.456H205.979C205.611 30.432 204.899 29.92 203.843 29.92C203.091 29.92 202.491 30.216 202.043 30.808C201.595 31.384 201.371 32.216 201.371 33.304C201.371 34.392 201.595 35.232 202.043 35.824C202.491 36.4 203.091 36.688 203.843 36.688C204.899 36.688 205.611 36.176 205.979 35.152H210.347C209.995 36.72 209.251 37.952 208.115 38.848C206.979 39.744 205.579 40.192 203.915 40.192C202.603 40.192 201.435 39.912 200.411 39.352C199.403 38.792 198.611 37.992 198.035 36.952C197.475 35.912 197.195 34.696 197.195 33.304ZM216.647 22.24V40H212.543V22.24H216.647ZM232.245 33.088C232.245 33.472 232.221 33.872 232.173 34.288H222.885C222.949 35.12 223.213 35.76 223.677 36.208C224.157 36.64 224.741 36.856 225.429 36.856C226.453 36.856 227.165 36.424 227.565 35.56H231.933C231.709 36.44 231.301 37.232 230.709 37.936C230.133 38.64 229.405 39.192 228.525 39.592C227.645 39.992 226.661 40.192 225.573 40.192C224.261 40.192 223.093 39.912 222.069 39.352C221.045 38.792 220.245 37.992 219.669 36.952C219.093 35.912 218.805 34.696 218.805 33.304C218.805 31.912 219.085 30.696 219.645 29.656C220.221 28.616 221.021 27.816 222.045 27.256C223.069 26.696 224.245 26.416 225.573 26.416C226.869 26.416 228.021 26.688 229.029 27.232C230.037 27.776 230.821 28.552 231.381 29.56C231.957 30.568 232.245 31.744 232.245 33.088ZM228.045 32.008C228.045 31.304 227.805 30.744 227.325 30.328C226.845 29.912 226.245 29.704 225.525 29.704C224.837 29.704 224.253 29.904 223.773 30.304C223.309 30.704 223.021 31.272 222.909 32.008H228.045Z" fill="#1E1039"/>
<path d="M11.6708 16.4713L8.02397 23.4207C7.7885 23.8694 7.94356 24.4304 8.37274 24.6827L14.083 28.0392C14.5181 28.2949 15.0712 28.1377 15.3187 27.6878L22.2985 15.0005H14.0607C13.0635 15.0005 12.1464 15.5649 11.6708 16.4713Z" fill="#29A361"/>
<path d="M22.2984 15L15.3188 27.6874C15.0709 28.1372 14.5181 28.2949 14.0832 28.0393L12.5928 27.1635C12.9561 27.2241 13.3342 27.0513 13.5266 26.701L19.965 15H22.2984Z" fill="#248F55"/>
<path d="M29.9353 21.7289L27.42 16.5503C26.9585 15.6002 26.0183 15.0005 24.9902 15.0005H17.7178L23.3015 24.7973C23.2832 24.8058 23.2648 24.8143 23.2465 24.8228C22.8953 24.9863 22.9096 25.5073 23.2692 25.6501L28.0908 27.565C28.3142 27.6537 28.5649 27.5383 28.6507 27.3073L30.5094 22.3019C30.6468 21.9316 30.2859 21.5743 29.9353 21.7289Z" fill="#34CB79"/>
<path d="M30.5093 22.3015L28.6501 27.3068C28.5647 27.5385 28.3136 27.654 28.0904 27.5648L26.6315 26.9852L28.3707 22.3015C28.4695 22.0358 28.3116 21.7772 28.085 21.7093C27.8693 21.6446 27.6851 21.4985 27.5843 21.2909L25.2812 16.5501C24.82 15.6003 23.8801 15 22.8516 15H24.9902C26.018 15 26.9579 15.6003 27.4199 16.5501L29.935 21.7291C30.2861 21.5746 30.6464 21.9313 30.5093 22.3015Z" fill="#2FB86E"/>
<path d="M25.0774 41.6949C25.0097 41.4074 24.651 41.2842 24.432 41.5106L20.6636 45.4077C20.5132 45.5632 20.5132 45.8152 20.6636 45.9706L24.4466 49.8828C24.664 50.1076 25.019 49.9876 25.0905 49.7049H30.6536C31.6778 49.7049 32.6152 49.1098 33.0786 48.1652L36.2529 41.6948H25.0774V41.6949Z" fill="#29A361"/>
<path d="M29.7744 41.6951L31.5782 44.5178C31.986 45.1559 32.0312 45.9714 31.6965 46.6535L30.9545 48.1654C30.4919 49.1097 29.5542 49.7052 28.5303 49.7052H30.6543C31.6782 49.7052 32.616 49.1097 33.0794 48.1654L36.2535 41.6952H29.7744V41.6951Z" fill="#248F55"/>
<path d="M17.4854 48.9611V42.0738C17.4854 41.5562 17.0796 41.1365 16.579 41.1365H1.64844L5.4908 48.4315C5.96706 49.3357 6.88303 49.8984 7.87867 49.8984H16.579C17.0795 49.8985 17.4854 49.4788 17.4854 48.9611Z" fill="#29A361"/>
<path d="M7.98053 41.1374L4.66472 46.8641L1.64844 41.1374H7.98053Z" fill="#248F55"/>
<path d="M17.4844 42.0741V48.9616C17.4844 49.4791 17.0787 49.8987 16.5783 49.8987H14.2002C14.7006 49.8987 15.1063 49.4791 15.1063 48.9616V42.0741C15.1063 41.5566 14.7006 41.1371 14.2002 41.1371H16.5783C17.0787 41.137 17.4844 41.5566 17.4844 42.0741Z" fill="#248F55"/>
<path d="M10.191 35.0511L9.52055 29.833C9.48745 29.5752 9.25847 29.3941 9.00925 29.4283L3.94406 30.1243C3.56264 30.1767 3.4205 30.6566 3.68176 30.9235L0.485071 35.6884C-0.101043 36.562 -0.160529 37.7027 0.331275 38.6364L3.80992 45.2409L9.45823 35.4839C9.46025 35.4854 9.46219 35.4871 9.46421 35.4886C9.7866 35.7416 10.2443 35.466 10.191 35.0511Z" fill="#34CB79"/>
<path d="M9.46404 35.4882C9.46247 35.4866 9.46023 35.485 9.45866 35.4834L3.81013 45.2402L2.64844 43.0349L7.24588 35.092L7.37337 34.8717C7.44309 34.7513 7.57933 34.6993 7.71257 34.726C7.71324 34.7262 7.71392 34.7263 7.71459 34.7264C7.99804 34.7787 8.28882 34.5344 8.24525 34.1993L7.6563 29.6135L9.00893 29.428C9.25838 29.3937 9.4878 29.5753 9.52091 29.8324L10.1915 35.0512C10.2447 35.4659 9.78657 35.7413 9.46404 35.4882Z" fill="#2FB86E"/>
<path d="M37.7813 35.3295L33.4086 28.7771C33.1404 28.3752 32.6186 28.2536 32.2096 28.4977L26.5111 31.8984C26.0588 32.1682 25.9201 32.7765 26.208 33.2271L34.2413 45.7962L37.9684 38.199C38.4195 37.2794 38.3477 36.1782 37.7813 35.3295Z" fill="#34CB79"/>
<path d="M37.9676 38.1989L34.24 45.7957L32.9897 43.8388L35.7567 38.1988C36.2078 37.2792 36.1362 36.1782 35.5696 35.3295L31.3516 29.0097L32.2092 28.4977C32.618 28.2533 33.1399 28.3751 33.4079 28.7772L37.7807 35.3296C38.3472 36.1783 38.4188 37.2794 37.9676 38.1989Z" fill="#2FB86E"/>
</svg>
